HIERARCHY
ROOT mixamorig:Hips
{
	OFFSET 0.000000 201.639420 0.000000
	CHANNELS 6 Xposition Yposition Zposition Xrotation Yrotation Zrotation
	JOINT mixamorig:Spine
	{
		OFFSET 0.006200 19.524994 -2.481800
		CHANNELS 3 Xrotation Yrotation Zrotation
		JOINT mixamorig:Spine1
		{
			OFFSET -0.000900 22.835007 -2.825400
			CHANNELS 3 Xrotation Yrotation Zrotation
			JOINT mixamorig:Spine2
			{
				OFFSET -0.020600 26.552490 -3.193300
				CHANNELS 3 Xrotation Yrotation Zrotation
				JOINT mixamorig:Neck
				{
					OFFSET -0.060000 30.701813 1.352200
					CHANNELS 3 Xrotation Yrotation Zrotation
					JOINT mixamorig:Head
					{
						OFFSET -0.087200 22.547607 3.670900
						CHANNELS 3 Xrotation Yrotation Zrotation
						JOINT mixamorig:HeadTop_End
						{
							OFFSET -0.830600 40.355194 7.893500
							CHANNELS 3 Xrotation Yrotation Zrotation
							End Site
							{
								OFFSET 0.000000 30.592346 0.000000
							}
						}
						JOINT mixamorig:RightEye
						{
							OFFSET -6.302100 18.118591 16.197100
							CHANNELS 3 Xrotation Yrotation Zrotation
							End Site
							{
								OFFSET 0.000000 30.592346 0.000000
							}
						}
						JOINT mixamorig:LeftEye
						{
							OFFSET 6.741500 18.382690 16.401899
							CHANNELS 3 Xrotation Yrotation Zrotation
							End Site
							{
								OFFSET 0.000000 30.592346 0.000000
							}
						}
					}
				}
				JOINT mixamorig:LeftShoulder
				{
					OFFSET 11.924900 18.230499 1.425400
					CHANNELS 3 Xrotation Yrotation Zrotation
					JOINT mixamorig:LeftArm
					{
						OFFSET 25.435989 -0.697632 -5.229300
						CHANNELS 3 Xrotation Yrotation Zrotation
						JOINT mixamorig:LeftForeArm
						{
							OFFSET 54.684776 0.000000 0.000000
							CHANNELS 3 Xrotation Yrotation Zrotation
							JOINT mixamorig:LeftHand
							{
								OFFSET 55.098175 0.000000 0.000000
								CHANNELS 3 Xrotation Yrotation Zrotation
								JOINT mixamorig:LeftHandMiddle1
								{
									OFFSET 23.369751 0.000000 0.000000
									CHANNELS 3 Xrotation Yrotation Zrotation
									JOINT mixamorig:LeftHandMiddle2
									{
										OFFSET 6.378677 0.000000 0.000000
										CHANNELS 3 Xrotation Yrotation Zrotation
										JOINT mixamorig:LeftHandMiddle3
										{
											OFFSET 6.148331 0.000000 0.000000
											CHANNELS 3 Xrotation Yrotation Zrotation
											JOINT mixamorig:LeftHandMiddle4
											{
												OFFSET 6.582504 0.000000 0.000000
												CHANNELS 3 Xrotation Yrotation Zrotation
												End Site
												{
													OFFSET -1.168900 6.395691 1.028606
												}
											}
										}
									}
								}
								JOINT mixamorig:LeftHandThumb1
								{
									OFFSET 7.235672 -3.848206 5.434273
									CHANNELS 3 Xrotation Yrotation Zrotation
									JOINT mixamorig:LeftHandThumb2
									{
										OFFSET 6.568451 -3.792297 3.792300
										CHANNELS 3 Xrotation Yrotation Zrotation
										JOINT mixamorig:LeftHandThumb3
										{
											OFFSET 6.063080 -3.500519 3.500518
											CHANNELS 3 Xrotation Yrotation Zrotation
											JOINT mixamorig:LeftHandThumb4
											{
												OFFSET 4.793182 -2.767334 2.767349
												CHANNELS 3 Xrotation Yrotation Zrotation
												End Site
												{
													OFFSET 0.101639 6.054260 1.275483
												}
											}
										}
									}
								}
								JOINT mixamorig:LeftHandIndex1
								{
									OFFSET 23.101074 -0.309540 4.992809
									CHANNELS 3 Xrotation Yrotation Zrotation
									JOINT mixamorig:LeftHandIndex2
									{
										OFFSET 6.226883 0.000000 0.000000
										CHANNELS 3 Xrotation Yrotation Zrotation
										JOINT mixamorig:LeftHandIndex3
										{
											OFFSET 6.094330 0.000000 0.000000
											CHANNELS 3 Xrotation Yrotation Zrotation
											JOINT mixamorig:LeftHandIndex4
											{
												OFFSET 5.482605 0.000000 0.000000
												CHANNELS 3 Xrotation Yrotation Zrotation
												End Site
												{
													OFFSET -1.427902 5.233032 0.797164
												}
											}
										}
									}
								}
								JOINT mixamorig:LeftHandRing1
								{
									OFFSET 22.299240 0.021149 -3.964172
									CHANNELS 3 Xrotation Yrotation Zrotation
									JOINT mixamorig:LeftHandRing2
									{
										OFFSET 6.321869 0.000000 0.000000
										CHANNELS 3 Xrotation Yrotation Zrotation
										JOINT mixamorig:LeftHandRing3
										{
											OFFSET 5.899796 0.000000 0.000000
											CHANNELS 3 Xrotation Yrotation Zrotation
											JOINT mixamorig:LeftHandRing4
											{
												OFFSET 6.517899 0.000000 0.000000
												CHANNELS 3 Xrotation Yrotation Zrotation
												End Site
												{
													OFFSET -1.637299 6.232208 0.980890
												}
											}
										}
									}
								}
								JOINT mixamorig:LeftHandPinky1
								{
									OFFSET 20.463791 -0.302338 -8.562233
									CHANNELS 3 Xrotation Yrotation Zrotation
									JOINT mixamorig:LeftHandPinky2
									{
										OFFSET 6.908646 0.000000 0.000000
										CHANNELS 3 Xrotation Yrotation Zrotation
										JOINT mixamorig:LeftHandPinky3
										{
											OFFSET 4.622849 0.000000 0.000000
											CHANNELS 3 Xrotation Yrotation Zrotation
											JOINT mixamorig:LeftHandPinky4
											{
												OFFSET 5.216080 0.000000 0.000000
												CHANNELS 3 Xrotation Yrotation Zrotation
												End Site
												{
													OFFSET -0.606308 5.116241 0.814926
												}
											}
										}
									}
								}
							}
						}
					}
				}
				JOINT mixamorig:RightShoulder
				{
					OFFSET -12.001300 18.284088 1.348900
					CHANNELS 3 Xrotation Yrotation Zrotation
					JOINT mixamorig:RightArm
					{
						OFFSET -25.308500 -0.751312 -5.164599
						CHANNELS 3 Xrotation Yrotation Zrotation
						JOINT mixamorig:RightForeArm
						{
							OFFSET -54.684429 0.000000 0.000000
							CHANNELS 3 Xrotation Yrotation Zrotation
							JOINT mixamorig:RightHand
							{
								OFFSET -55.150291 0.000000 0.000000
								CHANNELS 3 Xrotation Yrotation Zrotation
								JOINT mixamorig:RightHandMiddle1
								{
									OFFSET -23.317566 0.000000 0.000000
									CHANNELS 3 Xrotation Yrotation Zrotation
									JOINT mixamorig:RightHandMiddle2
									{
										OFFSET -6.378403 0.000000 0.000000
										CHANNELS 3 Xrotation Yrotation Zrotation
										JOINT mixamorig:RightHandMiddle3
										{
											OFFSET -6.148193 0.000000 0.000000
											CHANNELS 3 Xrotation Yrotation Zrotation
											JOINT mixamorig:RightHandMiddle4
											{
												OFFSET -6.583389 0.000000 0.000000
												CHANNELS 3 Xrotation Yrotation Zrotation
												End Site
												{
													OFFSET 1.171692 6.395905 1.029786
												}
											}
										}
									}
								}
								JOINT mixamorig:RightHandThumb1
								{
									OFFSET -7.190521 -3.860474 5.435846
									CHANNELS 3 Xrotation Yrotation Zrotation
									JOINT mixamorig:RightHandThumb2
									{
										OFFSET -6.567429 -3.791718 3.791708
										CHANNELS 3 Xrotation Yrotation Zrotation
										JOINT mixamorig:RightHandThumb3
										{
											OFFSET -6.062469 -3.500153 3.500166
											CHANNELS 3 Xrotation Yrotation Zrotation
											JOINT mixamorig:RightHandThumb4
											{
												OFFSET -4.792618 -2.767029 2.767022
												CHANNELS 3 Xrotation Yrotation Zrotation
												End Site
												{
													OFFSET -0.100327 6.053253 1.276754
												}
											}
										}
									}
								}
								JOINT mixamorig:RightHandIndex1
								{
									OFFSET -23.048981 -0.310791 4.992554
									CHANNELS 3 Xrotation Yrotation Zrotation
									JOINT mixamorig:RightHandIndex2
									{
										OFFSET -6.227539 0.000000 0.000000
										CHANNELS 3 Xrotation Yrotation Zrotation
										JOINT mixamorig:RightHandIndex3
										{
											OFFSET -6.095047 0.000000 0.000000
											CHANNELS 3 Xrotation Yrotation Zrotation
											JOINT mixamorig:RightHandIndex4
											{
												OFFSET -5.484772 0.000000 0.000000
												CHANNELS 3 Xrotation Yrotation Zrotation
												End Site
												{
													OFFSET 1.420593 5.237305 0.797056
												}
											}
										}
									}
								}
								JOINT mixamorig:RightHandRing1
								{
									OFFSET -22.246323 0.020569 -3.963762
									CHANNELS 3 Xrotation Yrotation Zrotation
									JOINT mixamorig:RightHandRing2
									{
										OFFSET -6.322128 0.000000 0.000000
										CHANNELS 3 Xrotation Yrotation Zrotation
										JOINT mixamorig:RightHandRing3
										{
											OFFSET -5.900024 0.000000 0.000000
											CHANNELS 3 Xrotation Yrotation Zrotation
											JOINT mixamorig:RightHandRing4
											{
												OFFSET -6.518356 0.000000 0.000000
												CHANNELS 3 Xrotation Yrotation Zrotation
												End Site
												{
													OFFSET 1.636398 6.232697 0.982186
												}
											}
										}
									}
								}
								JOINT mixamorig:RightHandPinky1
								{
									OFFSET -20.411011 -0.303314 -8.561701
									CHANNELS 3 Xrotation Yrotation Zrotation
									JOINT mixamorig:RightHandPinky2
									{
										OFFSET -6.907349 0.000000 0.000000
										CHANNELS 3 Xrotation Yrotation Zrotation
										JOINT mixamorig:RightHandPinky3
										{
											OFFSET -4.623840 0.000000 0.000000
											CHANNELS 3 Xrotation Yrotation Zrotation
											JOINT mixamorig:RightHandPinky4
											{
												OFFSET -5.218353 0.000000 0.000000
												CHANNELS 3 Xrotation Yrotation Zrotation
												End Site
												{
													OFFSET 0.602097 5.118835 0.816273
												}
											}
										}
									}
								}
							}
						}
					}
				}
			}
		}
	}
	JOINT mixamorig:LeftUpLeg
	{
		OFFSET 18.168400 -13.561905 -0.039000
		CHANNELS 3 Xrotation Yrotation Zrotation
		JOINT mixamorig:LeftLeg
		{
			OFFSET 0.577358 -80.825211 -3.695000
			CHANNELS 3 Xrotation Yrotation Zrotation
			JOINT mixamorig:LeftFoot
			{
				OFFSET -0.577356 -83.370262 -6.520700
				CHANNELS 3 Xrotation Yrotation Zrotation
				JOINT mixamorig:LeftToeBase
				{
					OFFSET 0.750401 -20.798306 25.135401
					CHANNELS 3 Xrotation Yrotation Zrotation
					JOINT mixamorig:LeftToe_End
					{
						OFFSET -0.000500 0.001200 19.917799
						CHANNELS 3 Xrotation Yrotation Zrotation
						End Site
						{
							OFFSET 0.000000 19.917805 0.000000
						}
					}
				}
			}
		}
	}
	JOINT mixamorig:RightUpLeg
	{
		OFFSET -18.162500 -13.585098 -0.041000
		CHANNELS 3 Xrotation Yrotation Zrotation
		JOINT mixamorig:RightLeg
		{
			OFFSET -0.595024 -80.945297 -3.631900
			CHANNELS 3 Xrotation Yrotation Zrotation
			JOINT mixamorig:RightFoot
			{
				OFFSET 0.595024 -83.218193 -6.561200
				CHANNELS 3 Xrotation Yrotation Zrotation
				JOINT mixamorig:RightToeBase
				{
					OFFSET -0.753601 -20.807106 25.115000
					CHANNELS 3 Xrotation Yrotation Zrotation
					JOINT mixamorig:RightToe_End
					{
						OFFSET 0.000299 0.001700 19.918200
						CHANNELS 3 Xrotation Yrotation Zrotation
						End Site
						{
							OFFSET 0.000000 19.918203 0.000000
						}
					}
				}
			}
		}
	}
}
MOTION
Frames: 5
Frame Time: 0.033333
14.896983 617.823242 895.512939 -44.805047 63.626163 -6.380459 -0.976012 -1.894177 -7.156253 1.018190 -2.560283 -2.310913 1.000920 -3.390087 -1.402808 14.044741 1.740539 -3.188506 22.108492 2.638354 13.613300 -0.000004 -0.000000 -0.000001 -0.000004 -0.000000 -0.000001 -0.000004 -0.000000 -0.000001 -27.136686 -49.141292 -26.558856 -15.724381 -21.697175 -22.604142 0.000015 -39.630445 0.000010 12.017218 -26.630889 38.226400 -0.039796 2.995920 -18.405476 0.828923 3.006001 -30.826232 0.224270 1.606976 -15.888323 0.000001 -0.000001 0.000003 2.855179 -0.006936 12.931805 0.583263 17.234657 14.792965 10.820790 30.471543 12.477670 0.000004 -0.000002 0.000000 8.671442 -11.055997 -7.681483 0.599721 2.584004 -26.129030 0.111609 1.139326 -11.190425 -0.000000 0.000000 -0.000001 2.168824 10.358344 -16.059687 1.736985 4.164033 -45.271177 0.791785 2.942959 -30.110776 0.000001 0.000001 -0.000003 5.102141 24.548765 -12.370515 1.250846 3.619544 -38.117954 0.917626 3.149707 -32.478325 -0.000001 -0.000001 0.000002 -0.928388 -12.082462 -15.874604 -99.481562 25.219078 56.471184 -0.000001 60.909728 0.000004 -19.288975 0.813136 -26.048887 1.870674 -5.973071 52.863540 2.860043 -4.297173 67.278777 2.859749 -4.297027 67.274973 0.000001 0.000001 -0.000000 27.894706 3.355390 20.339313 1.471588 -32.832576 -9.827358 -7.686826 -37.509859 -29.638291 0.000000 -0.000001 -0.000002 1.664545 -5.805826 49.187262 2.223315 -3.971769 58.464889 2.223080 -3.971641 58.461215 0.000001 0.000000 -0.000002 1.718798 -5.851732 50.062459 2.716504 -4.234366 65.349262 2.966105 -4.339923 68.687497 0.000000 0.000002 0.000000 0.820329 -4.849227 33.427250 2.017404 -3.838136 55.441793 1.585935 -3.502638 48.709760 0.000001 0.000000 0.000000 -21.341165 4.794147 27.168864 55.908793 2.102876 -1.730505 -12.732973 9.147283 2.481916 -5.098559 0.000011 0.000001 -0.000000 -0.000000 0.000002 -33.507300 -0.688875 0.307382 53.288579 9.799512 -6.672308 25.721763 -0.099378 2.508810 -4.200352 0.000005 0.000017 -0.000000 0.000002 0.000000 
13.959993 619.989258 918.897339 -32.808349 68.035200 -14.451531 -0.514611 -2.575237 -8.310281 1.286562 -3.138265 -3.267188 2.033303 -3.714681 -2.383184 13.401250 1.791012 -3.859854 19.799154 2.829652 14.459951 0.000003 0.000000 -0.000003 0.000003 0.000000 -0.000003 0.000003 0.000000 -0.000003 -25.979475 -48.324053 -26.703087 -21.170894 -33.193685 -22.187320 0.000018 -20.921218 -0.000003 7.665304 -34.958319 36.282853 -0.514280 0.874239 -14.651760 0.711866 2.800836 -28.515864 0.164348 1.379270 -13.589012 -0.000002 -0.000000 0.000000 4.330509 -2.469660 9.088716 -0.150867 16.553095 20.447768 15.052844 38.819295 10.237805 0.000003 0.000000 -0.000002 12.114651 -11.520729 4.276280 0.466711 2.293272 -23.003227 0.058139 0.824109 -8.069367 -0.000000 0.000001 -0.000002 1.417235 9.318243 -11.749484 1.545419 3.965598 -42.569226 0.645721 2.675625 -27.131335 -0.000000 0.000002 -0.000001 3.640505 24.174302 -8.634065 1.123229 3.451016 -36.048482 0.917605 3.149667 -32.477778 -0.000002 -0.000001 0.000002 -0.957059 -12.494141 -18.100259 -101.610901 35.322354 41.067899 0.000017 45.679626 -0.000018 -37.518420 12.751084 -21.721096 1.870808 -5.973177 52.865688 2.860007 -4.297155 67.278197 2.859852 -4.297086 67.276400 0.000002 -0.000002 -0.000001 27.892761 3.354787 20.337865 1.471576 -32.832569 -9.827356 -7.686824 -37.509845 -29.638315 -0.000002 -0.000000 0.000002 1.664683 -5.805936 49.189428 2.223255 -3.971746 58.464234 2.223150 -3.971689 58.462512 0.000002 -0.000003 0.000001 1.718928 -5.851846 50.064651 2.716457 -4.234365 65.348668 2.966219 -4.339970 68.688849 -0.000000 0.000006 -0.000002 0.820425 -4.849376 33.429429 2.017400 -3.838129 55.441796 1.585929 -3.502635 48.709784 0.000001 0.000003 -0.000001 -27.365899 -2.260904 30.767885 64.561284 2.380098 -1.496950 -18.684266 2.654228 -1.711602 -3.427137 -0.000009 0.000005 0.000001 -0.000001 -0.000001 -31.445399 0.812669 1.468547 42.767766 9.796890 -7.586563 28.051192 1.082065 7.008078 -4.501358 0.000008 -0.000013 0.000002 0.000001 -0.000002 
13.261373 620.060486 941.905212 -16.954659 71.984696 -25.338615 0.237792 -3.563896 -9.714551 2.243846 -3.877026 -4.160838 3.079801 -4.017778 -3.391076 12.625208 1.803002 -4.553675 17.400084 3.152434 14.714384 0.000003 0.000001 -0.000001 0.000003 0.000001 -0.000001 0.000003 0.000001 -0.000001 -22.761498 -47.041890 -22.243308 -19.602189 -36.396166 -19.203937 -0.000017 -22.727900 -0.000010 -1.234826 -32.671858 33.100026 1.131138 -16.572827 2.349681 0.553837 2.488355 -25.091764 0.152720 1.330286 -13.097566 -0.000001 0.000001 0.000001 46.662104 2.582240 24.412165 -0.292993 15.731457 25.529487 21.042928 47.413780 6.731965 0.000002 0.000002 -0.000000 25.530438 -28.233246 22.018291 0.333316 1.949688 -19.401555 0.038676 0.672746 -6.579659 -0.000002 0.000000 0.000000 3.055659 -13.926579 10.099734 1.157907 3.498082 -36.620882 0.507338 2.386624 -23.998500 -0.000001 -0.000000 0.000002 1.653940 -2.346859 24.925887 0.914077 3.144135 -32.413691 0.875269 3.082257 -31.699178 -0.000002 -0.000001 -0.000000 -0.649690 -11.949524 -19.395021 -92.002088 45.648726 19.112520 0.000023 29.855214 -0.000019 -75.924649 28.286988 -11.764532 1.870901 -5.973255 52.867184 2.859966 -4.297138 67.277807 2.859928 -4.297106 67.277350 0.000002 0.000003 -0.000002 27.891095 3.353987 20.335770 1.471583 -32.832545 -9.827356 -7.686811 -37.509872 -29.638277 0.000001 0.000000 0.000000 1.664776 -5.806028 49.190944 2.223229 -3.971719 58.463790 2.223197 -3.971705 58.463339 -0.000002 0.000000 0.000000 1.719030 -5.851932 50.066168 2.716433 -4.234361 65.348286 2.966286 -4.339984 68.689730 -0.000002 -0.000004 0.000004 0.820492 -4.849492 33.430938 2.017404 -3.838140 55.441779 1.585935 -3.502640 48.709764 -0.000001 -0.000001 0.000001 -32.689504 -7.532789 33.333570 70.220949 4.134597 -1.199510 -25.267660 -6.126443 -5.492509 -1.383206 -0.000033 0.000004 0.000000 -0.000001 -0.000001 -29.299855 -0.154117 -1.686920 31.255987 9.682767 -6.315563 31.641480 0.892731 13.681507 -4.772889 0.000025 -0.000020 -0.000002 -0.000002 -0.000002 
12.904249 620.030396 963.385071 -0.216376 75.862290 -34.912997 1.429811 -4.489553 -11.142969 3.917226 -4.828604 -5.162998 4.094828 -4.359502 -4.186389 12.019750 1.850723 -5.199845 15.106194 3.952687 13.403965 0.000001 0.000001 -0.000004 0.000001 0.000001 -0.000004 0.000001 0.000001 -0.000004 -18.569758 -45.643374 -15.473181 -14.674467 -31.468734 -14.494177 -0.000006 -34.925021 -0.000007 -13.234973 -28.325939 31.577706 -0.047568 1.493568 -5.605844 0.436599 2.221043 -22.238756 0.048072 0.749772 -7.337037 -0.000002 -0.000002 0.000000 6.799160 -4.326191 -0.473497 0.140231 15.100959 29.426699 28.303773 54.888561 2.066226 0.000002 0.000004 0.000004 15.313602 -9.249376 10.711818 0.268207 1.753945 -17.386482 0.005411 0.251920 -2.459140 0.000000 -0.000001 -0.000001 0.165902 8.562970 -0.636920 0.900809 3.123178 -32.171222 0.234840 1.643713 -16.261816 -0.000004 -0.000004 0.000000 -0.545269 23.787269 2.776980 0.713213 2.803307 -28.543547 0.804481 2.964719 -30.356943 -0.000001 -0.000001 -0.000001 0.356668 -8.959163 -19.753353 -73.913022 48.637159 -6.702203 0.000005 23.012789 -0.000017 -114.915091 30.400219 -3.703717 1.870950 -5.973291 52.867751 2.859954 -4.297156 67.277671 2.859962 -4.297119 67.277671 -0.000001 0.000000 -0.000002 27.889759 3.352965 20.332896 1.471588 -32.832552 -9.827352 -7.686840 -37.509838 -29.638318 0.000000 -0.000001 0.000001 1.664811 -5.806051 49.191507 2.223223 -3.971707 58.463633 2.223221 -3.971745 58.463639 -0.000001 0.000002 -0.000005 1.719076 -5.851954 50.066735 2.716411 -4.234335 65.348163 2.966303 -4.339999 68.690038 -0.000000 0.000000 0.000001 0.820520 -4.849521 33.431495 2.017392 -3.838143 55.441793 1.585939 -3.502619 48.709764 -0.000002 0.000001 -0.000001 -35.925248 -8.067325 34.448336 70.689726 5.285211 -0.920275 -31.956819 -15.277166 -9.360604 0.428201 0.000002 0.000000 0.000000 -0.000000 0.000000 -22.549419 -1.822586 -7.553137 15.387535 9.573143 -5.784788 35.080422 9.861730 12.623542 -5.008850 0.000020 -0.000014 -0.000000 -0.000002 -0.000003 
12.013790 619.249512 981.916443 28.971333 77.354959 -57.865363 2.154264 -5.096418 -11.538392 4.662012 -5.100424 -5.767968 4.586172 -4.648759 -4.931596 11.616213 1.991747 -5.653538 12.912355 5.333970 11.309875 0.000002 0.000003 0.000002 0.000002 0.000003 0.000002 0.000002 0.000003 0.000002 -14.630562 -44.129087 -9.256166 -13.607268 -29.035025 -13.454121 -0.000021 -39.765775 -0.000018 -24.074702 -28.571458 27.739379 0.071876 2.702330 -1.802382 0.334840 1.953955 -19.445893 0.018501 0.465805 -4.550426 -0.000003 -0.000001 0.000002 7.512864 -5.253437 -5.512376 0.959863 14.931430 31.558640 34.896960 60.497922 -3.204223 0.000001 0.000005 0.000004 16.196557 -8.545724 10.660253 0.222912 1.602219 -15.839969 0.000757 0.093660 -0.913934 -0.000002 -0.000002 0.000001 -0.337300 7.698903 4.435290 0.605562 2.595836 -26.257897 0.094529 1.049296 -10.295934 -0.000002 -0.000000 0.000002 -2.372969 22.047786 8.140175 0.663247 2.709524 -27.504385 0.747751 2.865815 -29.241833 -0.000001 -0.000000 -0.000003 1.763889 -4.035536 -19.305306 -65.604766 28.284985 -21.285701 -0.000004 51.479334 -0.000010 -107.447024 31.563752 -20.072857 0.395040 -4.046260 22.636167 0.943579 -2.812406 37.087838 0.944136 -2.813130 37.099276 0.000002 0.000002 0.000002 2.749612 1.784706 2.717088 0.178184 -28.403104 -8.513815 -8.027192 -33.771187 -26.560705 0.000001 0.000000 -0.000001 -2.513024 2.570307 24.009088 0.769386 -2.566025 33.376693 0.770183 -2.567250 33.394315 -0.000000 -0.000001 0.000000 3.458065 -11.512734 22.016997 1.128912 -3.041762 40.715990 1.307122 -3.237020 43.969401 0.000000 0.000000 0.000001 3.436737 -15.506213 14.635342 0.894855 -2.746827 36.083268 0.599556 -2.287747 29.367542 0.000001 -0.000001 -0.000001 -40.874656 -9.045188 34.769030 69.348304 6.456253 -0.692842 -36.931328 -22.070119 -14.537376 1.610172 0.000051 -0.000012 -0.000000 0.000001 -0.000000 -22.247673 -1.041902 -11.620404 10.250215 9.480820 -7.393234 33.498137 11.778134 14.122827 -5.203072 0.000000 0.000011 0.000003 -0.000000 -0.000001 
